<?xml version="1.0" encoding="utf-8"?>
<!-- Generator: Adobe Illustrator 25.2.1, SVG Export Plug-In . SVG Version: 6.00 Build 0)  -->
<svg version="1.1" xmlns="http://www.w3.org/2000/svg" xmlns:xlink="http://www.w3.org/1999/xlink" x="0px" y="0px"
	 viewBox="0 0 1920 1080" style="enable-background:new 0 0 1920 1080;" xml:space="preserve">
<style type="text/css">
	.st0{fill:#00043C;}
	.st1{fill:none;stroke:#00FFFF;stroke-miterlimit:10;}
	.st2{fill:none;stroke:#00FFFF;stroke-width:0.25;stroke-miterlimit:10;}
	.st3{fill:none;stroke:#FFFFFF;stroke-width:0.25;stroke-miterlimit:10;}
	.st4{fill:none;stroke:#FFFFFF;stroke-miterlimit:10;}
	.st5{fill:url(#SVGID_1_);}
	.st6{fill:url(#SVGID_2_);}
</style>
<g id="Calque_1">
	<g>
		<rect x="0.5" y="0.5" class="st0" width="1919" height="1079"/>
		<path d="M1919,1v1078H1V1H1919 M1920,0H0v1080h1920V0L1920,0z"/>
	</g>
</g>
<g id="Calque_2">
	<polyline class="st1" points="982.8,573.88 1017.28,701.36 1031.71,754.7 	"/>
	<polyline class="st2" points="1173.77,701.36 1017.28,701.36 930.42,701.36 	"/>
	<line class="st3" x1="897.62" y1="701.36" x2="623" y2="701.36"/>
	<line class="st3" x1="1173.77" y1="754.7" x2="619" y2="754.7"/>
	<line class="st3" x1="876.02" y1="785.24" x2="858.7" y2="847"/>
	<line class="st3" x1="909.63" y1="207.93" x2="746.23" y2="859.51"/>
	<path class="st4" d="M1025.46,571.21c-0.04-0.01-0.07-0.02-0.11-0.03"/>
	<g>
		<linearGradient id="SVGID_1_" gradientUnits="userSpaceOnUse" x1="1038.741" y1="222.8048" x2="934.2923" y2="663.41">
			<stop  offset="0" style="stop-color:#00FFFF;stop-opacity:0.74"/>
			<stop  offset="0" style="stop-color:#00FFFF;stop-opacity:0.7483"/>
			<stop  offset="0.1413" style="stop-color:#00FFFF;stop-opacity:0.7839"/>
			<stop  offset="1" style="stop-color:#00FFFF"/>
		</linearGradient>
		<path class="st5" d="M891.96,410.63c0-0.01,0-0.02,0.01-0.03l6.07-24.13l2.88-10.79l0.02-0.06c3.93-10.9,14.44-18.71,26.8-18.71
			h21.46l32.56-0.01h32.8l64.64-0.01h0.8c2.08-14.93,14.97-26.49,30.72-26.88h-24.78l-64.82,0.01l-32.79,0.01h-49.89l-26.22,0.01
			h-12.29c-11.76,0.64-21.61,8.4-25.29,19.02l-1.21,4.79c-0.17,1-0.27,2.03-0.32,3.07h-0.45l-22.72,90.38l-6.8,27.02l-15.55,61.86
			l-0.84,3.32c-0.34,1.73-0.51,3.52-0.51,5.35c0,0.48,0.01,0.95,0.04,1.42c0.68,13.86,11.28,25.1,24.85,26.74
			c0.61,0.09,1.23,0.14,1.85,0.17h3.23l39.23-0.01h33.49l-0.5,2.05l-0.04,0.16l-2.17,8.88l-4.48,18.37l-21.51,88.03l-2.61,10.7
			l-13.03,53.34l-7.82,27.89c5.18-16.17,20.37-27.89,38.31-27.89h2.31l13.03-53.34l2.61-10.7l17.91-73.35l0.22-0.89l3.34-13.68
			l0.96-3.93c3.83-12.61,14.31-22.31,27.34-24.93c1.07-0.22,2.16-0.39,3.27-0.51c1.2-0.13,2.43-0.2,3.67-0.21h35.23l15.95,0.01h0.15
			h1.13h0.62c28.47-0.6,54.05-19.73,61.22-48.28c8.59-34.27-12.64-69.12-47.42-77.91l-0.08,0.29l-50.58,0.01h-15.4l-15.72,0.08
			l-8.07-0.1c-2.36,0.01-4.73,0.02-7.09,0.03H921.4c-0.7,0.06-1.41,0.09-2.13,0.09c-0.71,0-1.42-0.03-2.12-0.09h-0.01
			c-14.8-1.07-26.46-13.31-26.46-28.26c0-1.83,0.18-3.63,0.52-5.36C891.39,412.63,891.65,411.62,891.96,410.63z M896.5,474.31h0.04
			c0.49-0.03,0.97-0.04,1.46-0.04s0.98,0.01,1.46,0.04h53.62l11.45-0.01h57.12l27.42-0.01c0.21,0.06,0.43,0.13,0.64,0.21h0.01
			c2.79,0.91,5.39,2.13,7.8,3.62c13.42,8.26,20.56,24.53,16.52,40.62c-3.66,14.62-15.51,25.01-29.44,27.5l-12.86-0.07l-0.02,0.07
			h-0.19l-46.14,0.01h-21.56l-28.33,0.01h-40.48c-0.04,0.01-0.08,0.01-0.12,0c-0.2,0.02-0.41,0.02-0.61,0.02
			c-0.2,0-0.41,0-0.61-0.02c-0.04,0.01-0.08,0.01-0.12,0c-3.79-0.08-7.38-0.92-10.66-2.35c-9.78-4.26-16.69-13.85-17.03-25.09
			c-0.02-0.29-0.02-0.59-0.02-0.89c0-2.18,0.25-4.3,0.73-6.34c0.08-0.4,0.18-0.79,0.29-1.18l3.2-12.72l1.05-4.18
			C874.74,482.78,884.66,474.92,896.5,474.31z"/>
		<linearGradient id="SVGID_2_" gradientUnits="userSpaceOnUse" x1="1062.193" y1="423.2239" x2="1050.9379" y2="470.7024">
			<stop  offset="0" style="stop-color:#00FFFF;stop-opacity:0.74"/>
			<stop  offset="0" style="stop-color:#00FFFF;stop-opacity:0.7483"/>
			<stop  offset="0.1413" style="stop-color:#00FFFF;stop-opacity:0.7839"/>
			<stop  offset="1" style="stop-color:#00FFFF"/>
		</linearGradient>
		<path class="st6" d="M1056.61,446.98h0.01l-0.11-0.03C1056.54,446.96,1056.58,446.97,1056.61,446.98z"/>
	</g>
	<path class="st3" d="M1031.71,546.27c-0.06-0.01-0.12-0.02-0.18-0.03c-0.13-0.02-0.26-0.05-0.39-0.07
		c-0.71-0.14-1.41-0.29-2.12-0.47"/>
	<line class="st4" x1="1031.74" y1="546.17" x2="1031.14" y2="546.17"/>
	<line class="st3" x1="1118" y1="204" x2="950.5" y2="867.5"/>
	<line class="st3" x1="667" y1="447" x2="1240" y2="447"/>
	<line class="st3" x1="665" y1="574" x2="1238" y2="574"/>
	<line class="st3" x1="711" y1="330" x2="1264" y2="330"/>
	<line class="st3" x1="1019" y1="861" x2="1186" y2="220"/>
</g>
</svg>
